<?xml version="1.0" encoding="UTF-8"?>
<svg id="Layer_1" data-name="Layer 1" xmlns="http://www.w3.org/2000/svg" viewBox="0 0 450 500">
  <defs>
    <style>
      .cls-1 {
        fill: #fff;
      }
    </style>
  </defs>
  <path class="cls-1" d="m228.84,500c-31.74-1.2-58.6-3.8-83.36-16.19-6.57-3.29-12.92-7.56-18.32-12.52-7.7-7.07-7.08-15.01,1.04-21.61,3.42-2.78,7.54-4.92,11.65-6.59,12.42-5.05,17.27-11.86,16.19-25.32-1-12.47-2.7-24.88-4.24-37.3-2.92-23.5-5.28-46.99-1.17-70.62,4.74-27.26,18.69-47.83,43.48-60.74,17.65-9.19,35.75-17.34,55.4-21.04,6.05-1.14,12.6-.32,18.84.37,7.18.79,12.25,4.99,15.69,11.44,5.79,10.86,7.71,22.62,8.02,34.64.65,24.65-3.56,48.52-13.44,71.18-2.56,5.87-6.14,11.37-9.8,16.66-3.22,4.64-7.87,6.98-13.79,7.9-6.58,1.02-13.22,2.99-19.29,5.73-18.32,8.27-25.36,23.29-21.7,43.08,5.02,27.08,28.43,34.62,49.36,29.97,21.08-4.68,31.74-16.75,34.13-39.39.74-6.99,1.33-14.04,1.26-21.05-.24-24.06,3.76-47.63,7.41-71.28,4.37-28.36,8.27-56.8,12.58-85.17,2.45-16.13,5.73-32.14,7.82-48.31,1.13-8.71.54-17.65.72-26.48.01-.28-.06-.56-.12-.84-.99-4.58-1.82-9.51-6.96-11.23-5.13-1.72-8.94,1.44-12.28,4.79-3.07,3.09-6.11,6.27-8.73,9.74-9.29,12.31-21.45,20.78-34.92,27.99-34.45,18.42-70.88,28.24-110.1,27.64-8.88-.14-17.07,3.35-24.09,8.98-5.37,4.31-7.81,10.15-8.43,16.88-1.33,14.49,1.37,28.63,3.89,42.74,4.03,22.55,6.5,45.13,2.94,67.99-.11.7-.21,1.39-.32,2.09-4.76,30.22-21.5,41.13-54.04,37.8-29.51-3.02-48.34-22.04-60.46-48.17C3.3,321.35-.23,297.61.02,273.1,1.1,166.1,76.49,75.2,181.48,54.43c122.02-24.15,241.08,56.28,264.32,178.56,23.35,122.85-58.3,241.28-181.66,263.12-13.11,2.32-26.52,2.96-35.3,3.89Z"/>
  <path class="cls-1" d="m410.02,29.06c.08,16.37-12.6,29.22-29,29.39-16.21.17-29.31-12.75-29.41-29.01-.09-16.25,12.85-29.37,29.03-29.44,16.26-.07,29.3,12.83,29.38,29.06Z"/>
</svg>