<?xml version="1.0" encoding="utf-8"?>
<!-- Generator: Adobe Illustrator 27.2.0, SVG Export Plug-In . SVG Version: 6.00 Build 0)  -->
<svg version="1.1" id="Layer_1" xmlns="http://www.w3.org/2000/svg" xmlns:xlink="http://www.w3.org/1999/xlink" x="0px" y="0px"
	 viewBox="0 0 450 500" style="enable-background:new 0 0 450 500;" xml:space="preserve">
<style type="text/css">
	.st0{fill:#EB1127;}
</style>
<g>
	<path class="st0" d="M228.84,500c-31.74-1.2-58.6-3.8-83.36-16.19c-6.57-3.29-12.92-7.56-18.32-12.52
		c-7.7-7.07-7.08-15.01,1.04-21.61c3.42-2.78,7.54-4.92,11.65-6.59c12.42-5.05,17.27-11.86,16.19-25.32
		c-1-12.47-2.7-24.88-4.24-37.3c-2.92-23.5-5.28-46.99-1.17-70.62c4.74-27.26,18.69-47.83,43.48-60.74
		c17.65-9.19,35.75-17.34,55.4-21.04c6.05-1.14,12.6-0.32,18.84,0.37c7.18,0.79,12.25,4.99,15.69,11.44
		c5.79,10.86,7.71,22.62,8.02,34.64c0.65,24.65-3.56,48.52-13.44,71.18c-2.56,5.87-6.14,11.37-9.8,16.66
		c-3.22,4.64-7.87,6.98-13.79,7.9c-6.58,1.02-13.22,2.99-19.29,5.73c-18.32,8.27-25.36,23.29-21.7,43.08
		c5.02,27.08,28.43,34.62,49.36,29.97c21.08-4.68,31.74-16.75,34.13-39.39c0.74-6.99,1.33-14.04,1.26-21.05
		c-0.24-24.06,3.76-47.63,7.41-71.28c4.37-28.36,8.27-56.8,12.58-85.17c2.45-16.13,5.73-32.14,7.82-48.31
		c1.13-8.71,0.54-17.65,0.72-26.48c0.01-0.28-0.06-0.56-0.12-0.84c-0.99-4.58-1.82-9.51-6.96-11.23c-5.13-1.72-8.94,1.44-12.28,4.79
		c-3.07,3.09-6.11,6.27-8.73,9.74c-9.29,12.31-21.45,20.78-34.92,27.99c-34.45,18.42-70.88,28.24-110.1,27.64
		c-8.88-0.14-17.07,3.35-24.09,8.98c-5.37,4.31-7.81,10.15-8.43,16.88c-1.33,14.49,1.37,28.63,3.89,42.74
		c4.03,22.55,6.5,45.13,2.94,67.99c-0.11,0.7-0.21,1.39-0.32,2.09c-4.76,30.22-21.5,41.13-54.04,37.8
		c-29.51-3.02-48.34-22.04-60.46-48.17C3.3,321.35-0.23,297.61,0.02,273.1C1.1,166.1,76.49,75.2,181.48,54.43
		C303.5,30.28,422.56,110.71,445.8,232.99c23.35,122.85-58.3,241.28-181.66,263.12C251.03,498.43,237.62,499.07,228.84,500z"/>
	<path class="st0" d="M410.02,29.06c0.08,16.37-12.6,29.22-29,29.39c-16.21,0.17-29.31-12.75-29.41-29.01
		C351.52,13.19,364.46,0.07,380.64,0C396.9-0.07,409.94,12.83,410.02,29.06z"/>
</g>
</svg>
