<?xml version="1.0" encoding="utf-8"?>
<!-- Generator: Adobe Illustrator 27.2.0, SVG Export Plug-In . SVG Version: 6.00 Build 0)  -->
<svg version="1.1" id="Layer_1" xmlns="http://www.w3.org/2000/svg" xmlns:xlink="http://www.w3.org/1999/xlink" x="0px" y="0px"
	 viewBox="0 0 450 440" style="enable-background:new 0 0 450 440;" xml:space="preserve">
<g>
	<path d="M69.17,68.99c-23.64,0-46.23,0-69.17,0C0,54.23,0,39.9,0,25.33c51.27,0,102.21,0,153.32,0c0,51.35,0,102.38,0,153.67
		c-14.61,0-28.93,0-43.73,0c0-28.95,0-57.61,0-86.66c-43.94,37.43-72.39,114.26-44.49,188.84
		c30.76,82.22,115.43,128.64,201.71,110.9c82.1-16.89,142.16-94.36,139.1-177.72c-3.56-97.02-83.45-171.66-175.58-171.21
		c0-14.33,0-28.67,0-43c71.21-3.07,168.18,41.46,206.04,143.63c36.43,98.3-2.36,209.28-92.28,264.21
		c-89.49,54.66-205.02,37.98-276.56-39.75C-6.2,288.13-12.18,156.61,69.17,68.99z"/>
</g>
</svg>
