<?xml version="1.0" encoding="utf-8"?>
<!-- Generator: Adobe Illustrator 27.2.0, SVG Export Plug-In . SVG Version: 6.00 Build 0)  -->
<svg version="1.1" id="Layer_1" xmlns="http://www.w3.org/2000/svg" xmlns:xlink="http://www.w3.org/1999/xlink" x="0px" y="0px"
	 viewBox="0 0 450 440" style="enable-background:new 0 0 450 440;" xml:space="preserve">
<style type="text/css">
	.st0{fill:#FFFFFF;}
</style>
<g>
	<path class="st0" d="M69.2,69C45.5,69,22.9,69,0,69c0-14.8,0-29.1,0-43.7c51.3,0,102.2,0,153.3,0c0,51.3,0,102.4,0,153.7
		c-14.6,0-28.9,0-43.7,0c0-28.9,0-57.6,0-86.7c-43.9,37.4-72.4,114.3-44.5,188.8c30.8,82.2,115.4,128.6,201.7,110.9
		c82.1-16.9,142.2-94.4,139.1-177.7c-3.6-97-83.4-171.7-175.6-171.2c0-14.3,0-28.7,0-43c71.2-3.1,168.2,41.5,206,143.6
		c36.4,98.3-2.4,209.3-92.3,264.2c-89.5,54.7-205,38-276.6-39.8C-6.2,288.1-12.2,156.6,69.2,69z"/>
</g>
</svg>
