<?xml version="1.0" encoding="UTF-8"?>
<svg id="Layer_1" data-name="Layer 1" xmlns="http://www.w3.org/2000/svg" viewBox="0 0 450 440">
  <defs>
    <style>
      .cls-1 {
        fill: #fff;
      }
    </style>
  </defs>
  <path class="cls-1" d="m450,98.71c-2.29,11.28-9.36,19.39-17.23,27.26-81.03,81.02-161.95,162.15-242.87,243.29-10.93,10.96-23.66,15.75-38.62,10.48-5.45-1.92-10.84-5.4-14.96-9.49-41.44-41.13-82.68-82.48-123.83-123.9-16.63-16.74-15.21-40.77,2.86-54.91,14.11-11.03,33.97-9.02,48.03,5.03,31.78,31.76,63.5,63.58,95.2,95.41,1.22,1.23,2.02,2.89,3.71,5.36,1.9-2.56,2.71-4,3.83-5.12,73.69-73.88,147.41-147.72,221.1-221.59,10.69-10.72,23.1-15.2,37.89-10.55,12.92,4.07,20.64,13.2,24.01,26.2.25.96.59,1.9.89,2.85v9.67Z"/>
</svg>